<?xml version="1.0" standalone="no"?>
<!DOCTYPE svg PUBLIC "-//W3C//DTD SVG 20010904//EN"
 "http://www.w3.org/TR/2001/REC-SVG-20010904/DTD/svg10.dtd">
<svg version="1.0" xmlns="http://www.w3.org/2000/svg"
 width="1024.000000pt" height="1024.000000pt" viewBox="0 0 1024.000000 1024.000000"
 preserveAspectRatio="xMidYMid meet">

<g transform="translate(0.000000,1024.000000) scale(0.100000,-0.100000)"
fill="#000000" stroke="none">
<path d="M5085 7889 c-208 -9 -235 -12 -455 -55 -160 -31 -289 -66 -315 -84
-5 -3 -46 -19 -90 -35 -141 -50 -417 -193 -540 -280 -223 -159 -327 -246 -483
-405 -113 -116 -147 -157 -271 -330 -260 -362 -408 -759 -472 -1265 -33 -268
-16 -618 44 -870 45 -186 136 -444 209 -589 89 -177 264 -440 402 -605 88
-104 311 -317 431 -410 393 -306 900 -507 1440 -571 104 -13 324 -15 410 -5
238 28 308 39 481 80 110 26 332 102 459 158 412 178 752 441 1035 801 25 31
58 73 74 92 31 38 82 117 129 204 17 30 40 69 53 85 20 27 40 65 110 205 82
165 191 536 229 785 25 164 31 460 12 630 -31 267 -90 506 -188 756 -105 269
-222 463 -437 730 -94 116 -341 353 -438 419 -12 8 -64 45 -115 81 -77 54
-339 209 -355 209 -2 0 -53 25 -114 55 -61 30 -125 59 -143 64 -17 6 -57 19
-88 30 -135 47 -478 107 -659 116 -63 3 -131 7 -150 9 -19 1 -111 -1 -205 -5z
m405 -224 c210 -22 443 -71 597 -125 347 -122 690 -339 962 -609 141 -139 218
-235 330 -413 371 -583 490 -1276 334 -1943 -137 -587 -459 -1088 -959 -1490
-222 -179 -416 -276 -784 -393 -52 -16 -117 -35 -145 -41 -27 -6 -72 -15 -98
-21 -27 -6 -92 -13 -145 -16 -53 -3 -111 -6 -128 -9 l-31 -3 -12 81 c-6 45
-11 110 -11 144 0 34 -5 65 -11 68 -12 8 -278 9 -286 2 -4 -5 -17 -116 -30
-251 l-6 -68 -86 7 c-47 3 -124 15 -171 26 -47 11 -116 27 -155 35 -167 34
-495 154 -635 231 -238 130 -360 224 -580 443 -414 412 -662 881 -766 1445
-10 58 -18 169 -21 315 -6 241 2 320 52 575 43 213 137 504 197 605 12 19 33
58 48 85 69 126 105 183 184 288 227 300 478 522 802 710 138 79 145 83 316
153 364 149 832 213 1238 169z m-1450 -145 c0 -5 -2 -10 -4 -10 -3 0 -8 5 -11
10 -3 6 -1 10 4 10 6 0 11 -4 11 -10z m-275 -100 c3 -5 1 -10 -4 -10 -6 0 -11
5 -11 10 0 6 2 10 4 10 3 0 8 -4 11 -10z m4085 -2920 c0 -5 -5 -10 -11 -10 -5
0 -7 5 -4 10 3 6 8 10 11 10 2 0 4 -4 4 -10z m-1140 -1551 c0 -11 -4 -18 -10
-14 -5 3 -7 12 -3 20 7 21 13 19 13 -6z m-410 -239 c0 -5 -4 -10 -10 -10 -5 0
-10 5 -10 10 0 6 5 10 10 10 6 0 10 -4 10 -10z"/>
<path d="M6078 6839 c-37 -4 -93 -15 -125 -25 -32 -9 -62 -18 -68 -20 -23 -5
-119 -46 -177 -75 -126 -63 -318 -287 -383 -446 -84 -206 -95 -217 -126 -125
-50 146 -195 382 -273 443 -16 13 -40 32 -52 44 -74 68 -285 165 -414 189
-119 23 -176 21 -190 -5 -20 -37 -5 -64 52 -89 121 -53 337 -161 385 -192 28
-18 72 -45 97 -60 26 -16 49 -36 53 -45 4 -10 11 -21 17 -25 25 -16 -8 -17
-110 -2 -121 17 -164 11 -164 -26 0 -24 37 -48 140 -91 152 -63 304 -187 357
-292 30 -61 63 -153 63 -179 0 -32 -20 -20 -109 64 -47 45 -117 102 -156 126
-38 25 -89 57 -112 72 -71 46 -277 129 -401 163 -109 29 -128 31 -287 31 -164
1 -174 -1 -280 -32 -163 -49 -293 -111 -379 -183 -54 -45 -131 -125 -145 -152
-13 -24 -12 -29 4 -47 26 -28 48 -25 129 19 39 21 82 42 96 46 14 5 76 32 138
61 62 30 116 54 120 54 4 0 21 7 37 16 20 11 65 18 135 21 l105 5 -35 -34
c-19 -18 -53 -45 -75 -59 -74 -49 -135 -109 -135 -134 0 -20 7 -25 35 -31 19
-3 41 -2 48 3 6 6 35 18 62 29 28 10 73 32 100 49 67 42 117 64 184 83 65 18
188 21 215 5 21 -12 24 -9 -94 -59 -56 -24 -140 -90 -140 -110 0 -18 14 -17
210 6 139 16 303 7 399 -24 25 -8 61 -18 79 -21 17 -4 32 -10 32 -14 0 -4 11
-14 25 -21 14 -7 25 -21 25 -31 0 -16 -15 -18 -182 -18 -243 0 -488 -23 -553
-50 -11 -5 -42 -17 -70 -26 -54 -19 -73 -27 -235 -103 -148 -69 -260 -151
-400 -292 -124 -124 -255 -326 -314 -483 -29 -76 -66 -241 -66 -291 0 -35 21
-66 44 -66 26 0 45 29 100 145 83 180 228 375 278 375 5 0 5 -37 2 -82 -4 -63
-3 -87 8 -101 14 -18 15 -18 44 6 20 17 45 61 74 129 54 128 136 255 213 331
59 56 92 71 103 43 3 -8 -13 -68 -35 -132 -23 -65 -41 -127 -41 -139 0 -25 18
-45 41 -45 23 0 81 68 114 135 43 84 125 185 174 214 36 20 44 22 38 8 -3 -9
-4 -17 -2 -17 8 0 48 24 63 38 7 6 17 12 22 12 5 0 44 22 87 48 43 27 104 59
137 71 32 12 78 30 101 41 23 11 90 31 149 46 83 21 109 25 119 15 20 -20 -4
-42 -98 -93 -371 -201 -699 -615 -813 -1023 -44 -161 -55 -234 -55 -390 0
-103 5 -175 16 -230 9 -44 19 -89 21 -100 11 -53 45 -144 69 -182 30 -48 54
-54 82 -23 17 19 18 39 16 243 -3 291 20 524 60 599 10 18 39 14 39 -6 0 -6 6
-23 14 -37 7 -15 26 -64 41 -110 40 -125 64 -169 91 -169 49 0 54 25 54 280 0
352 23 498 80 527 49 24 56 8 63 -152 8 -162 15 -188 53 -183 39 5 72 74 104
213 11 50 24 99 30 110 5 11 19 56 31 99 11 44 25 87 30 95 4 9 29 66 54 126
25 61 56 126 69 145 13 19 40 63 61 98 21 34 42 62 48 62 10 0 4 -272 -17
-785 -3 -60 -8 -258 -12 -439 -7 -310 -6 -329 10 -323 10 4 57 7 106 7 75 0
88 2 92 18 2 9 1 103 -4 207 -10 234 -27 1278 -21 1285 2 3 13 -6 24 -20 78
-98 182 -295 239 -454 23 -61 45 -120 50 -131 5 -11 16 -47 25 -80 28 -102 66
-195 85 -205 29 -15 58 -12 64 8 3 9 10 40 16 67 6 28 15 68 20 90 5 22 9 58
10 81 0 74 39 86 64 19 36 -94 48 -211 50 -478 1 -241 2 -260 20 -272 35 -26
58 1 118 145 46 109 78 161 96 158 23 -4 44 -90 38 -151 -3 -27 -1 -85 5 -130
6 -45 14 -182 18 -303 7 -240 10 -254 62 -254 42 0 64 28 78 101 7 35 15 71
18 79 3 8 7 26 9 40 1 14 8 54 13 90 13 80 14 343 2 425 -24 161 -108 410
-186 552 -150 271 -378 494 -666 651 -76 42 -128 86 -116 99 9 8 138 -21 237
-54 164 -55 279 -116 365 -194 33 -29 67 -49 86 -49 8 0 10 15 7 50 -5 50 -5
50 16 33 50 -41 109 -111 185 -222 45 -66 93 -129 108 -140 33 -27 70 -27 78
-2 8 27 4 103 -7 117 -5 7 -8 16 -6 20 1 5 -6 34 -15 66 -9 31 -17 61 -17 67
0 23 36 9 75 -28 75 -71 138 -178 199 -336 28 -75 49 -105 83 -124 35 -18 53
18 53 106 0 88 9 92 67 30 52 -56 77 -95 175 -284 89 -171 97 -183 126 -183
43 0 69 79 42 128 -5 9 -16 50 -25 90 -29 134 -111 308 -212 450 -175 245
-497 466 -811 557 -31 9 -61 20 -67 25 -5 4 -53 16 -105 26 -73 14 -154 18
-343 20 -137 1 -256 5 -264 9 -13 5 -11 11 13 36 27 28 41 34 199 78 61 17
321 21 395 6 19 -4 68 -9 108 -12 68 -5 72 -4 72 15 0 25 -40 56 -137 107 -78
40 -89 59 -45 76 63 25 169 -6 328 -95 136 -76 255 -106 284 -71 19 23 -10 57
-121 141 -52 39 -94 77 -94 85 0 34 183 -4 295 -62 30 -15 73 -35 95 -44 196
-82 279 -113 290 -108 8 2 17 13 20 23 19 61 -130 194 -322 286 -142 68 -262
94 -484 101 -117 4 -150 2 -225 -17 -310 -76 -574 -205 -744 -365 -38 -36 -74
-65 -80 -65 -23 0 -21 34 5 108 57 165 130 236 374 363 99 52 119 80 81 111
-21 17 -34 19 -82 14 -31 -4 -81 -13 -110 -21 -29 -7 -55 -11 -57 -9 -3 2 15
25 40 50 45 47 105 85 264 169 50 26 95 51 100 55 6 3 39 17 75 29 97 34 167
69 174 86 9 26 -14 63 -43 67 -14 2 -56 0 -93 -3z m-11 -855 c-3 -3 -12 -4
-19 -1 -8 3 -5 6 6 6 11 1 17 -2 13 -5z"/>
<path d="M5125 3816 c-2 -6 -6 -82 -10 -168 l-6 -158 28 -1 c15 -1 77 -3 137
-4 l108 -2 -6 51 c-3 29 -9 104 -12 168 -7 111 -8 117 -30 122 -42 11 -205 5
-209 -8z"/>
<path d="M5115 3380 c-9 -14 -26 -320 -19 -342 4 -14 24 -17 142 -20 75 -2
142 -2 148 0 8 2 10 17 7 40 -2 20 -7 102 -11 182 l-7 145 -127 3 c-81 2 -129
-1 -133 -8z"/>
<path d="M9160 4555 c0 -8 5 -15 10 -15 6 0 10 7 10 15 0 8 -4 15 -10 15 -5 0
-10 -7 -10 -15z"/>
<path d="M7421 1304 c0 -11 3 -14 6 -6 3 7 2 16 -1 19 -3 4 -6 -2 -5 -13z"/>
</g>
</svg>
